<svg width="368" height="237" viewBox="0 0 368 237" fill="none" xmlns="http://www.w3.org/2000/svg">
<g filter="url(#filter0_d_2_2)">
<rect x="23.8903" y="35.0196" width="319" height="193" rx="15" fill="#FFE7F8"/>
<path d="M185.058 138.553C184.056 139.208 182.76 139.205 181.762 138.546L33.1662 40.3865C30.6812 38.745 31.8481 34.8768 34.8263 34.8834L332.448 35.539C335.426 35.5455 336.576 39.4188 334.084 41.0494L185.058 138.553Z" fill="#FFCBEF"/>
<path d="M184.917 129.541C189.607 139.087 192.603 160.037 184.999 162.877C177.395 165.717 162.07 149.372 157.381 139.825C152.692 130.279 155.055 120.238 162.658 117.398C170.262 114.558 180.228 119.995 184.917 129.541Z" fill="#BC0000"/>
<path d="M181.863 129.305C177.174 138.851 174.178 159.801 181.782 162.641C189.386 165.481 204.71 149.135 209.4 139.589C214.089 130.043 211.726 120.002 204.122 117.162C196.518 114.322 186.553 119.758 181.863 129.305Z" fill="#BC0000"/>
</g>
<defs>
<filter id="filter0_d_2_2" x="19.8903" y="34.8833" width="327" height="201.136" filterUnits="userSpaceOnUse" color-interpolation-filters="sRGB">
<feFlood flood-opacity="0" result="BackgroundImageFix"/>
<feColorMatrix in="SourceAlpha" type="matrix" values="0 0 0 0 0 0 0 0 0 0 0 0 0 0 0 0 0 0 127 0" result="hardAlpha"/>
<feOffset dy="4"/>
<feGaussianBlur stdDeviation="2"/>
<feComposite in2="hardAlpha" operator="out"/>
<feColorMatrix type="matrix" values="0 0 0 0 0 0 0 0 0 0 0 0 0 0 0 0 0 0 0.25 0"/>
<feBlend mode="normal" in2="BackgroundImageFix" result="effect1_dropShadow_2_2"/>
<feBlend mode="normal" in="SourceGraphic" in2="effect1_dropShadow_2_2" result="shape"/>
</filter>
</defs>
</svg>
