<svg width="124" height="182" viewBox="0 0 124 182" fill="none" xmlns="http://www.w3.org/2000/svg">
<path d="M6.97939 65.8286C6.46695 62.779 8.81787 60.0001 11.9103 60.0001H110.137C113.214 60.0001 115.56 62.7515 115.075 65.7892L97.173 177.789C96.7853 180.215 94.6925 182 92.2357 182H30.7299C28.2883 182 26.2037 180.237 25.7991 177.829L6.97939 65.8286Z" fill="#F9EFE5"/>
<path d="M56.6646 119.745C54.6407 119.381 53.2954 117.445 53.6598 115.421L73.7802 3.6646C74.1446 1.6407 76.0807 0.295401 78.1046 0.659781C80.1285 1.02416 81.4738 2.96024 81.1094 4.98414L60.989 116.74C60.6246 118.764 58.6885 120.11 56.6646 119.745Z" fill="black"/>
<path d="M10.6026 86.4899C10.5458 85.9424 10.9422 85.452 11.4894 85.3927L20.3139 84.4352C28.9815 83.4948 37.7443 84.837 45.7329 88.3289L58.0328 93.7052C60.002 94.5659 62.0579 95.2125 64.1653 95.634L71.886 97.178C81.1065 99.0219 90.6602 98.2284 99.4502 94.8885L111 90.5L98.4938 180.276C98.3561 181.264 97.5109 182 96.513 182H22.3035C21.2787 182 20.4197 181.225 20.3141 180.206L10.6026 86.4899Z" fill="#18AB22"/>
<path d="M0 57C0 54.2386 2.23858 52 5 52H119C121.761 52 124 54.2386 124 57V62C124 64.7614 121.761 67 119 67H5C2.23858 67 0 64.7614 0 62V57Z" fill="#ECE1D6"/>
</svg>
